<?xml version="1.0" encoding="iso-8859-1"?>
<!-- Generator: Adobe Illustrator 19.0.0, SVG Export Plug-In . SVG Version: 6.00 Build 0)  -->
<svg version="1.1" id="Layer_1" xmlns="http://www.w3.org/2000/svg" xmlns:xlink="http://www.w3.org/1999/xlink" x="0px" y="0px"
	 viewBox="0 0 509.287 509.287" style="enable-background:new 0 0 509.287 509.287;" xml:space="preserve">
<circle style="fill:#0090FF;" cx="254.644" cy="254.644" r="254.644"/>
<path style="fill:#F1F3F7;" d="M462.834,91.55H46.453c-10.85,0-19.666,8.816-19.666,19.666v287.195
	c0,10.85,8.816,19.666,19.666,19.666h416.382c10.85,0,19.666-8.816,19.666-19.666V111.216
	C482.501,100.366,473.685,91.55,462.834,91.55z"/>
<rect x="62.728" y="173.944" style="fill:#FCFCFD;" width="383.83" height="209.208"/>
<g>
	<circle style="fill:#0090FF;" cx="167.841" cy="243.115" r="44.419"/>
	<path style="fill:#0090FF;" d="M243.454,358.061c-2.034-39.672-35.264-71.205-75.274-71.205c-40.35,0-73.24,31.534-75.274,71.205
		H243.454z"/>
</g>
<g>
	<rect x="272.615" y="205.478" style="fill:#F1F3F7;" width="144.106" height="24.752"/>
	<rect x="272.615" y="266.172" style="fill:#F1F3F7;" width="144.106" height="24.752"/>
	<rect x="272.615" y="326.527" style="fill:#F1F3F7;" width="144.106" height="24.752"/>
</g>
<path style="fill:#646B79;" d="M294.654,115.963h-80.021c-7.799,0-13.902,6.103-13.902,13.902s6.103,13.902,13.902,13.902h79.682
	c7.799,0,13.902-6.103,13.902-13.902C308.217,122.066,302.114,115.963,294.654,115.963z"/>
<rect x="221.415" y="35.264" style="fill:#F0582F;" width="66.119" height="94.601"/>
<g>
</g>
<g>
</g>
<g>
</g>
<g>
</g>
<g>
</g>
<g>
</g>
<g>
</g>
<g>
</g>
<g>
</g>
<g>
</g>
<g>
</g>
<g>
</g>
<g>
</g>
<g>
</g>
<g>
</g>
</svg>
